<svg width="53" height="29" viewBox="0 0 53 29" fill="none" xmlns="http://www.w3.org/2000/svg">
<path d="M1 4.5L24.5 28.5H27.5L51.5 4.5C51.3251 1.98321 50.6004 1.17287 48 1L26 23L4.5 1.5C1.95307 1.3619 1.08515 1.90633 1 4.5Z" fill="#33333b5"/>
<path d="M1 4.5L0.500269 4.48359L0.493259 4.69715L0.642745 4.84981L1 4.5ZM24.5 28.5L24.1427 28.8498L24.2898 29H24.5V28.5ZM27.5 28.5V29H27.7071L27.8535 28.8536L27.5 28.5ZM51.5 4.5L51.8536 4.85355L52.0146 4.69252L51.9988 4.46533L51.5 4.5ZM48 1L48.0332 0.501101L47.8068 0.486056L47.6465 0.646446L48 1ZM26 23L25.6464 23.3536L26 23.7071L26.3535 23.3536L26 23ZM4.5 1.5L4.85355 1.14645L4.7182 1.0111L4.52707 1.00073L4.5 1.5ZM0.642745 4.84981L24.1427 28.8498L24.8572 28.1502L1.35726 4.15019L0.642745 4.84981ZM24.5 29H27.5V28H24.5V29ZM27.8535 28.8536L51.8536 4.85355L51.1465 4.14645L27.1464 28.1464L27.8535 28.8536ZM51.9988 4.46533C51.9102 3.19052 51.679 2.19685 51.0166 1.52104C50.3517 0.842661 49.3561 0.589048 48.0332 0.501101L47.9668 1.4989C49.2443 1.58382 49.9112 1.82181 50.3025 2.22102C50.6963 2.6228 50.9149 3.2927 51.0012 4.53467L51.9988 4.46533ZM47.6465 0.646446L25.6464 22.6464L26.3535 23.3536L48.3536 1.35355L47.6465 0.646446ZM26.3535 22.6464L4.85355 1.14645L4.14645 1.85355L25.6464 23.3536L26.3535 22.6464ZM4.52707 1.00073C3.25866 0.931959 2.22135 1.01154 1.51178 1.58733C0.78238 2.17921 0.543428 3.16894 0.500269 4.48359L1.49973 4.51641C1.54172 3.23739 1.7793 2.65806 2.14189 2.36384C2.52429 2.05353 3.1944 1.92994 4.47293 1.99927L4.52707 1.00073Z" fill="#eee"/>
</svg>
